<mxfile host="Electron" agent="Mozilla/5.0 (Macintosh; Intel Mac OS X 10_15_7) AppleWebKit/537.36 (KHTML, like Gecko) draw.io/27.0.9 Chrome/134.0.6998.205 Electron/35.4.0 Safari/537.36" version="27.0.9">
  <diagram name="Page-1" id="MvDgVUrZ-MRLdhu7UyqY">
    <mxGraphModel dx="1092" dy="665" grid="0" gridSize="10" guides="1" tooltips="1" connect="1" arrows="1" fold="1" page="1" pageScale="1" pageWidth="1654" pageHeight="2336" background="light-dark(#ffffff, #959595)" math="0" shadow="0">
      <root>
        <mxCell id="0" />
        <mxCell id="1" parent="0" />
        <mxCell id="NMqnJI7aEqDqJTZ6Ip5w-5" style="edgeStyle=orthogonalEdgeStyle;rounded=0;orthogonalLoop=1;jettySize=auto;html=1;exitX=0.5;exitY=1;exitDx=0;exitDy=0;dashed=1;entryX=0.5;entryY=0;entryDx=0;entryDy=0;strokeColor=#000000;" parent="1" source="NMqnJI7aEqDqJTZ6Ip5w-1" target="NMqnJI7aEqDqJTZ6Ip5w-6" edge="1">
          <mxGeometry relative="1" as="geometry">
            <mxPoint x="118" y="460" as="targetPoint" />
          </mxGeometry>
        </mxCell>
        <mxCell id="NMqnJI7aEqDqJTZ6Ip5w-29" style="edgeStyle=orthogonalEdgeStyle;rounded=0;orthogonalLoop=1;jettySize=auto;html=1;exitX=1;exitY=0.5;exitDx=0;exitDy=0;entryX=0;entryY=0.5;entryDx=0;entryDy=0;strokeWidth=2;strokeColor=#000000;" parent="1" source="NMqnJI7aEqDqJTZ6Ip5w-1" target="NMqnJI7aEqDqJTZ6Ip5w-3" edge="1">
          <mxGeometry relative="1" as="geometry" />
        </mxCell>
        <mxCell id="NMqnJI7aEqDqJTZ6Ip5w-1" value="&lt;font face=&quot;Verdana&quot;&gt;&lt;b&gt;USER&lt;/b&gt;:&lt;br&gt;Quiero dejar un &lt;b&gt;RECLAMO&lt;/b&gt;&lt;/font&gt;" style="rounded=1;whiteSpace=wrap;html=1;fillColor=none;strokeColor=#000000;strokeWidth=2;" parent="1" vertex="1">
          <mxGeometry x="58" y="360" width="120" height="60" as="geometry" />
        </mxCell>
        <mxCell id="NMqnJI7aEqDqJTZ6Ip5w-10" style="edgeStyle=orthogonalEdgeStyle;rounded=0;orthogonalLoop=1;jettySize=auto;html=1;exitX=0.5;exitY=1;exitDx=0;exitDy=0;dashed=1;strokeColor=#000000;" parent="1" source="NMqnJI7aEqDqJTZ6Ip5w-3" target="NMqnJI7aEqDqJTZ6Ip5w-9" edge="1">
          <mxGeometry relative="1" as="geometry" />
        </mxCell>
        <mxCell id="NMqnJI7aEqDqJTZ6Ip5w-28" style="edgeStyle=orthogonalEdgeStyle;rounded=0;orthogonalLoop=1;jettySize=auto;html=1;exitX=1;exitY=0.5;exitDx=0;exitDy=0;entryX=0;entryY=0.5;entryDx=0;entryDy=0;strokeWidth=2;strokeColor=#000000;" parent="1" source="NMqnJI7aEqDqJTZ6Ip5w-3" target="NMqnJI7aEqDqJTZ6Ip5w-11" edge="1">
          <mxGeometry relative="1" as="geometry" />
        </mxCell>
        <mxCell id="NMqnJI7aEqDqJTZ6Ip5w-3" value="&lt;font face=&quot;Verdana&quot;&gt;&lt;b&gt;BOT&lt;/b&gt;:&lt;/font&gt;&lt;div&gt;&lt;font face=&quot;Verdana&quot;&gt;Para procesar tu &lt;b&gt;RECLAMO&lt;/b&gt; necesito que me proporciones tu &lt;i&gt;nombre&lt;/i&gt;&lt;/font&gt;&lt;/div&gt;" style="whiteSpace=wrap;html=1;fillColor=none;strokeColor=#000000;rounded=1;strokeWidth=2;" parent="1" vertex="1">
          <mxGeometry x="222" y="350" width="150" height="80" as="geometry" />
        </mxCell>
        <mxCell id="NMqnJI7aEqDqJTZ6Ip5w-6" value="&lt;font face=&quot;Verdana&quot;&gt;&lt;b&gt;BOT&lt;/b&gt; identifica &lt;i&gt;INTENT&lt;/i&gt; &lt;b&gt;RECLAMO&lt;/b&gt;&lt;/font&gt;" style="shape=document;whiteSpace=wrap;html=1;boundedLbl=1;fillColor=none;strokeColor=#000000;strokeWidth=2;fontColor=#333333;" parent="1" vertex="1">
          <mxGeometry x="48" y="463" width="140" height="80" as="geometry" />
        </mxCell>
        <mxCell id="NMqnJI7aEqDqJTZ6Ip5w-9" value="&lt;font face=&quot;Verdana&quot;&gt;&lt;b&gt;BOT&lt;/b&gt; conecta con &lt;b&gt;COMPLAINTS-MPC&lt;/b&gt;&lt;/font&gt;" style="shape=document;whiteSpace=wrap;html=1;boundedLbl=1;fillColor=none;strokeColor=#000000;strokeWidth=2;fontColor=#333333;" parent="1" vertex="1">
          <mxGeometry x="237" y="463" width="120" height="80" as="geometry" />
        </mxCell>
        <mxCell id="NMqnJI7aEqDqJTZ6Ip5w-74" style="edgeStyle=orthogonalEdgeStyle;rounded=0;orthogonalLoop=1;jettySize=auto;html=1;exitX=0.5;exitY=1;exitDx=0;exitDy=0;strokeColor=#000000;dashed=1;strokeWidth=1;" parent="1" source="NMqnJI7aEqDqJTZ6Ip5w-11" target="NMqnJI7aEqDqJTZ6Ip5w-19" edge="1">
          <mxGeometry relative="1" as="geometry" />
        </mxCell>
        <mxCell id="Y92-rjjAcBgaWCxeQdZq-10" style="edgeStyle=orthogonalEdgeStyle;rounded=0;orthogonalLoop=1;jettySize=auto;html=1;exitX=1;exitY=0.5;exitDx=0;exitDy=0;entryX=0;entryY=0.5;entryDx=0;entryDy=0;strokeWidth=2;" edge="1" parent="1" source="NMqnJI7aEqDqJTZ6Ip5w-11" target="NMqnJI7aEqDqJTZ6Ip5w-20">
          <mxGeometry relative="1" as="geometry" />
        </mxCell>
        <mxCell id="NMqnJI7aEqDqJTZ6Ip5w-11" value="&lt;font face=&quot;Verdana&quot;&gt;&lt;b style=&quot;&quot;&gt;USER&lt;/b&gt;:&lt;br&gt;Entrega &lt;i style=&quot;&quot;&gt;nombre&lt;/i&gt;&lt;/font&gt;" style="rounded=1;whiteSpace=wrap;html=1;fillColor=none;strokeColor=#000000;strokeWidth=2;" parent="1" vertex="1">
          <mxGeometry x="420" y="369" width="120" height="42" as="geometry" />
        </mxCell>
        <mxCell id="NMqnJI7aEqDqJTZ6Ip5w-12" value="&lt;b&gt;BOT&lt;/b&gt;&amp;nbsp;registra en &lt;b&gt;BD&lt;/b&gt; &lt;i&gt;nombre &lt;/i&gt;y &lt;i&gt;rut&lt;/i&gt; del &lt;b&gt;USER.&amp;nbsp;&lt;/b&gt;&lt;br&gt;Identifica y registra &lt;b&gt;IP&lt;/b&gt;" style="shape=document;whiteSpace=wrap;html=1;boundedLbl=1;fillColor=none;strokeColor=#000000;strokeWidth=2;fontColor=#333333;" parent="1" vertex="1">
          <mxGeometry x="651" y="474" width="136" height="100" as="geometry" />
        </mxCell>
        <mxCell id="NMqnJI7aEqDqJTZ6Ip5w-33" style="edgeStyle=orthogonalEdgeStyle;rounded=0;orthogonalLoop=1;jettySize=auto;html=1;exitX=1;exitY=0.5;exitDx=0;exitDy=0;entryX=0;entryY=0.5;entryDx=0;entryDy=0;strokeWidth=2;strokeColor=#000000;" parent="1" source="NMqnJI7aEqDqJTZ6Ip5w-15" target="NMqnJI7aEqDqJTZ6Ip5w-34" edge="1">
          <mxGeometry relative="1" as="geometry">
            <mxPoint x="10" y="773" as="targetPoint" />
            <Array as="points">
              <mxPoint x="1533" y="444" />
              <mxPoint x="1533" y="643" />
              <mxPoint x="85" y="643" />
              <mxPoint x="85" y="773" />
            </Array>
          </mxGeometry>
        </mxCell>
        <mxCell id="Y92-rjjAcBgaWCxeQdZq-38" value="&lt;span style=&quot;color: rgb(255, 255, 255); font-family: &amp;quot;Courier New&amp;quot;; font-size: 13px; text-align: left; text-wrap-mode: wrap; background-color: rgb(0, 0, 0);&quot;&gt;mensaje_reclamos&lt;/span&gt;" style="edgeLabel;html=1;align=center;verticalAlign=middle;resizable=0;points=[];" vertex="1" connectable="0" parent="NMqnJI7aEqDqJTZ6Ip5w-33">
          <mxGeometry x="-0.8513" relative="1" as="geometry">
            <mxPoint as="offset" />
          </mxGeometry>
        </mxCell>
        <mxCell id="NMqnJI7aEqDqJTZ6Ip5w-15" value="&lt;b&gt;BOT&lt;/b&gt;:&lt;br&gt;Cuál es tu reclamo?" style="rounded=1;whiteSpace=wrap;html=1;fillColor=none;strokeColor=#000000;strokeWidth=2;" parent="1" vertex="1">
          <mxGeometry x="1397" y="414" width="77" height="60" as="geometry" />
        </mxCell>
        <mxCell id="NMqnJI7aEqDqJTZ6Ip5w-16" value="&lt;b&gt;BOT&lt;/b&gt;&amp;nbsp;registra &lt;b style=&quot;&quot;&gt;RECLAMO&amp;nbsp;&lt;/b&gt;en&amp;nbsp;&lt;b&gt;BD&lt;/b&gt;&amp;nbsp;" style="shape=document;whiteSpace=wrap;html=1;boundedLbl=1;fillColor=none;strokeColor=#000000;strokeWidth=2;fontColor=#333333;" parent="1" vertex="1">
          <mxGeometry x="142" y="850" width="120" height="80" as="geometry" />
        </mxCell>
        <mxCell id="Y92-rjjAcBgaWCxeQdZq-14" style="edgeStyle=orthogonalEdgeStyle;rounded=0;orthogonalLoop=1;jettySize=auto;html=1;exitX=1;exitY=0.5;exitDx=0;exitDy=0;entryX=0.5;entryY=1;entryDx=0;entryDy=0;strokeWidth=2;" edge="1" parent="1" source="NMqnJI7aEqDqJTZ6Ip5w-19" target="NMqnJI7aEqDqJTZ6Ip5w-20">
          <mxGeometry relative="1" as="geometry" />
        </mxCell>
        <mxCell id="NMqnJI7aEqDqJTZ6Ip5w-19" value="&lt;font face=&quot;Verdana&quot;&gt;&lt;b&gt;BOT&lt;/b&gt;&amp;nbsp;evalúa&amp;nbsp;&lt;/font&gt;&lt;div&gt;&lt;font face=&quot;Verdana&quot;&gt;consistencia de&lt;/font&gt;&lt;/div&gt;&lt;div&gt;&lt;i&gt;&lt;font face=&quot;Verdana&quot;&gt;nombre&amp;nbsp;&lt;/font&gt;&lt;/i&gt;&lt;/div&gt;&lt;div&gt;&lt;font face=&quot;Verdana&quot;&gt;del&amp;nbsp;&lt;b&gt;USER&lt;/b&gt;&lt;/font&gt;&lt;/div&gt;" style="shape=step;perimeter=stepPerimeter;whiteSpace=wrap;html=1;fixedSize=1;fillColor=none;strokeColor=#000000;strokeWidth=2;fontColor=#333333;" parent="1" vertex="1">
          <mxGeometry x="411.5" y="439" width="137" height="76" as="geometry" />
        </mxCell>
        <mxCell id="NMqnJI7aEqDqJTZ6Ip5w-24" style="edgeStyle=orthogonalEdgeStyle;rounded=0;orthogonalLoop=1;jettySize=auto;html=1;exitX=1;exitY=0.5;exitDx=0;exitDy=0;entryX=0;entryY=0.5;entryDx=0;entryDy=0;strokeWidth=2;strokeColor=#000000;" parent="1" source="NMqnJI7aEqDqJTZ6Ip5w-20" target="NMqnJI7aEqDqJTZ6Ip5w-23" edge="1">
          <mxGeometry relative="1" as="geometry" />
        </mxCell>
        <mxCell id="NMqnJI7aEqDqJTZ6Ip5w-25" style="edgeStyle=orthogonalEdgeStyle;rounded=0;orthogonalLoop=1;jettySize=auto;html=1;exitX=1;exitY=0.5;exitDx=0;exitDy=0;entryX=0;entryY=0.5;entryDx=0;entryDy=0;strokeWidth=2;strokeColor=#000000;" parent="1" source="NMqnJI7aEqDqJTZ6Ip5w-20" target="NMqnJI7aEqDqJTZ6Ip5w-22" edge="1">
          <mxGeometry relative="1" as="geometry" />
        </mxCell>
        <mxCell id="NMqnJI7aEqDqJTZ6Ip5w-20" value="&lt;font face=&quot;Verdana&quot;&gt;IF&lt;/font&gt;" style="rhombus;whiteSpace=wrap;html=1;fillColor=none;strokeColor=#000000;strokeWidth=2;" parent="1" vertex="1">
          <mxGeometry x="582" y="360" width="60" height="60" as="geometry" />
        </mxCell>
        <mxCell id="NMqnJI7aEqDqJTZ6Ip5w-31" style="edgeStyle=orthogonalEdgeStyle;rounded=0;orthogonalLoop=1;jettySize=auto;html=1;exitX=0.5;exitY=1;exitDx=0;exitDy=0;entryX=0.5;entryY=0;entryDx=0;entryDy=0;dashed=1;strokeColor=#000000;" parent="1" source="NMqnJI7aEqDqJTZ6Ip5w-22" target="NMqnJI7aEqDqJTZ6Ip5w-12" edge="1">
          <mxGeometry relative="1" as="geometry" />
        </mxCell>
        <mxCell id="Y92-rjjAcBgaWCxeQdZq-19" style="edgeStyle=orthogonalEdgeStyle;rounded=0;orthogonalLoop=1;jettySize=auto;html=1;exitX=1;exitY=0.5;exitDx=0;exitDy=0;strokeWidth=2;" edge="1" parent="1" source="NMqnJI7aEqDqJTZ6Ip5w-22">
          <mxGeometry relative="1" as="geometry">
            <mxPoint x="805.8333333333335" y="436" as="targetPoint" />
          </mxGeometry>
        </mxCell>
        <mxCell id="NMqnJI7aEqDqJTZ6Ip5w-22" value="TRUE" style="rounded=0;whiteSpace=wrap;html=1;fillColor=none;strokeColor=#000000;strokeWidth=2;" parent="1" vertex="1">
          <mxGeometry x="689" y="421" width="60" height="30" as="geometry" />
        </mxCell>
        <mxCell id="Y92-rjjAcBgaWCxeQdZq-11" style="edgeStyle=orthogonalEdgeStyle;rounded=0;orthogonalLoop=1;jettySize=auto;html=1;exitX=0.5;exitY=0;exitDx=0;exitDy=0;entryX=0.5;entryY=0;entryDx=0;entryDy=0;dashed=1;dashPattern=1 2;strokeWidth=2;" edge="1" parent="1" source="NMqnJI7aEqDqJTZ6Ip5w-23" target="NMqnJI7aEqDqJTZ6Ip5w-3">
          <mxGeometry relative="1" as="geometry">
            <Array as="points">
              <mxPoint x="719" y="278" />
              <mxPoint x="297" y="278" />
            </Array>
          </mxGeometry>
        </mxCell>
        <mxCell id="NMqnJI7aEqDqJTZ6Ip5w-23" value="FALSE" style="rounded=0;whiteSpace=wrap;html=1;fillColor=none;strokeColor=#000000;strokeWidth=2;" parent="1" vertex="1">
          <mxGeometry x="689" y="331" width="60" height="30" as="geometry" />
        </mxCell>
        <mxCell id="NMqnJI7aEqDqJTZ6Ip5w-36" style="edgeStyle=orthogonalEdgeStyle;rounded=0;orthogonalLoop=1;jettySize=auto;html=1;exitX=0.5;exitY=1;exitDx=0;exitDy=0;dashed=1;strokeColor=#000000;" parent="1" source="NMqnJI7aEqDqJTZ6Ip5w-34" target="NMqnJI7aEqDqJTZ6Ip5w-16" edge="1">
          <mxGeometry relative="1" as="geometry" />
        </mxCell>
        <mxCell id="NMqnJI7aEqDqJTZ6Ip5w-40" style="edgeStyle=orthogonalEdgeStyle;rounded=0;orthogonalLoop=1;jettySize=auto;html=1;exitX=1;exitY=0.5;exitDx=0;exitDy=0;entryX=0;entryY=0.5;entryDx=0;entryDy=0;strokeWidth=2;strokeColor=#000000;" parent="1" source="NMqnJI7aEqDqJTZ6Ip5w-34" target="NMqnJI7aEqDqJTZ6Ip5w-37" edge="1">
          <mxGeometry relative="1" as="geometry" />
        </mxCell>
        <mxCell id="NMqnJI7aEqDqJTZ6Ip5w-34" value="&lt;b&gt;USER&lt;/b&gt;:&lt;br&gt;Escribe&amp;nbsp;&lt;b&gt;RECLAMO&lt;/b&gt;" style="rounded=1;whiteSpace=wrap;html=1;fillColor=none;strokeColor=#000000;strokeWidth=2;" parent="1" vertex="1">
          <mxGeometry x="184" y="743" width="120" height="60" as="geometry" />
        </mxCell>
        <mxCell id="NMqnJI7aEqDqJTZ6Ip5w-39" style="edgeStyle=orthogonalEdgeStyle;rounded=0;orthogonalLoop=1;jettySize=auto;html=1;exitX=0.5;exitY=1;exitDx=0;exitDy=0;entryX=0.5;entryY=0;entryDx=0;entryDy=0;dashed=1;strokeColor=#000000;" parent="1" source="NMqnJI7aEqDqJTZ6Ip5w-37" target="NMqnJI7aEqDqJTZ6Ip5w-38" edge="1">
          <mxGeometry relative="1" as="geometry" />
        </mxCell>
        <mxCell id="NMqnJI7aEqDqJTZ6Ip5w-41" style="edgeStyle=orthogonalEdgeStyle;rounded=0;orthogonalLoop=1;jettySize=auto;html=1;exitX=1;exitY=0.5;exitDx=0;exitDy=0;strokeWidth=2;strokeColor=#000000;" parent="1" source="NMqnJI7aEqDqJTZ6Ip5w-37" edge="1">
          <mxGeometry relative="1" as="geometry">
            <mxPoint x="612" y="769.8333333333335" as="targetPoint" />
          </mxGeometry>
        </mxCell>
        <mxCell id="NMqnJI7aEqDqJTZ6Ip5w-37" value="&lt;b&gt;BOT&lt;/b&gt;:&lt;div&gt;A qué departamento crees que corresponde atender tú reclamo?&lt;br&gt;Escribe el número al que corresponde el departamento seleccionado&lt;/div&gt;" style="whiteSpace=wrap;html=1;fillColor=none;strokeColor=#000000;rounded=1;strokeWidth=2;" parent="1" vertex="1">
          <mxGeometry x="352" y="715" width="190" height="110" as="geometry" />
        </mxCell>
        <mxCell id="NMqnJI7aEqDqJTZ6Ip5w-38" value="&lt;b&gt;&lt;br&gt;BOT&lt;/b&gt;&amp;nbsp;muestra en pantalla opciones:&lt;br&gt;&lt;div style=&quot;text-align: left;&quot;&gt;&lt;span style=&quot;background-color: transparent; color: light-dark(rgb(51, 51, 51), rgb(193, 193, 193));&quot;&gt;1. Alcaldía&lt;/span&gt;&lt;/div&gt;&lt;div style=&quot;text-align: left;&quot;&gt;&lt;span style=&quot;background-color: transparent; color: light-dark(rgb(51, 51, 51), rgb(193, 193, 193));&quot;&gt;2. Social&lt;/span&gt;&lt;/div&gt;&lt;div style=&quot;text-align: left;&quot;&gt;3. Vivienda&lt;/div&gt;&lt;div style=&quot;text-align: left;&quot;&gt;4. Tesorería&lt;br&gt;5. Obras&lt;/div&gt;&lt;div style=&quot;text-align: left;&quot;&gt;6. Medio Ambiente&lt;br&gt;7. Finanzas&lt;/div&gt;&lt;div style=&quot;text-align: left;&quot;&gt;8. Otros&lt;/div&gt;" style="shape=document;whiteSpace=wrap;html=1;boundedLbl=1;fillColor=none;strokeColor=#000000;strokeWidth=2;fontColor=#333333;" parent="1" vertex="1">
          <mxGeometry x="342" y="870" width="210" height="180" as="geometry" />
        </mxCell>
        <mxCell id="NMqnJI7aEqDqJTZ6Ip5w-50" style="edgeStyle=orthogonalEdgeStyle;rounded=0;orthogonalLoop=1;jettySize=auto;html=1;exitX=1;exitY=0.5;exitDx=0;exitDy=0;strokeWidth=2;strokeColor=#000000;" parent="1" source="NMqnJI7aEqDqJTZ6Ip5w-42" target="NMqnJI7aEqDqJTZ6Ip5w-46" edge="1">
          <mxGeometry relative="1" as="geometry" />
        </mxCell>
        <mxCell id="NMqnJI7aEqDqJTZ6Ip5w-42" value="&lt;b&gt;BOT&lt;/b&gt;&amp;nbsp;evalúa&amp;nbsp;&lt;div&gt;consistencia de&lt;/div&gt;&lt;div&gt;&lt;span style=&quot;background-color: transparent; color: light-dark(rgb(51, 51, 51), rgb(193, 193, 193));&quot;&gt;&lt;i&gt;selección&lt;/i&gt; del&amp;nbsp;&lt;/span&gt;&lt;b style=&quot;background-color: transparent; color: light-dark(rgb(51, 51, 51), rgb(193, 193, 193));&quot;&gt;USER&lt;/b&gt;&lt;/div&gt;" style="shape=step;perimeter=stepPerimeter;whiteSpace=wrap;html=1;fixedSize=1;fillColor=none;strokeColor=#000000;strokeWidth=2;fontColor=#333333;" parent="1" vertex="1">
          <mxGeometry x="592" y="725" width="150" height="90" as="geometry" />
        </mxCell>
        <mxCell id="NMqnJI7aEqDqJTZ6Ip5w-43" value="&lt;b&gt;BOT&lt;/b&gt;&amp;nbsp;registra en &lt;b&gt;BD&lt;/b&gt;&amp;nbsp;selección&amp;nbsp;del &lt;b&gt;USER&lt;/b&gt;" style="shape=document;whiteSpace=wrap;html=1;boundedLbl=1;fillColor=none;strokeColor=#000000;strokeWidth=2;fontColor=#333333;" parent="1" vertex="1">
          <mxGeometry x="899.5" y="880" width="125" height="80" as="geometry" />
        </mxCell>
        <mxCell id="NMqnJI7aEqDqJTZ6Ip5w-44" style="edgeStyle=orthogonalEdgeStyle;rounded=0;orthogonalLoop=1;jettySize=auto;html=1;exitX=1;exitY=0.5;exitDx=0;exitDy=0;entryX=0;entryY=0.5;entryDx=0;entryDy=0;strokeWidth=2;strokeColor=#000000;" parent="1" source="NMqnJI7aEqDqJTZ6Ip5w-46" target="NMqnJI7aEqDqJTZ6Ip5w-49" edge="1">
          <mxGeometry relative="1" as="geometry" />
        </mxCell>
        <mxCell id="NMqnJI7aEqDqJTZ6Ip5w-45" style="edgeStyle=orthogonalEdgeStyle;rounded=0;orthogonalLoop=1;jettySize=auto;html=1;exitX=1;exitY=0.5;exitDx=0;exitDy=0;entryX=0;entryY=0.5;entryDx=0;entryDy=0;strokeWidth=2;strokeColor=#000000;" parent="1" source="NMqnJI7aEqDqJTZ6Ip5w-46" target="NMqnJI7aEqDqJTZ6Ip5w-48" edge="1">
          <mxGeometry relative="1" as="geometry" />
        </mxCell>
        <mxCell id="NMqnJI7aEqDqJTZ6Ip5w-46" value="IF" style="rhombus;whiteSpace=wrap;html=1;fillColor=none;strokeColor=#000000;strokeWidth=2;" parent="1" vertex="1">
          <mxGeometry x="792" y="740" width="60" height="60" as="geometry" />
        </mxCell>
        <mxCell id="NMqnJI7aEqDqJTZ6Ip5w-47" style="edgeStyle=orthogonalEdgeStyle;rounded=0;orthogonalLoop=1;jettySize=auto;html=1;exitX=0.5;exitY=1;exitDx=0;exitDy=0;entryX=0.5;entryY=0;entryDx=0;entryDy=0;dashed=1;strokeColor=#000000;" parent="1" source="NMqnJI7aEqDqJTZ6Ip5w-48" target="NMqnJI7aEqDqJTZ6Ip5w-43" edge="1">
          <mxGeometry relative="1" as="geometry" />
        </mxCell>
        <mxCell id="NMqnJI7aEqDqJTZ6Ip5w-54" style="edgeStyle=orthogonalEdgeStyle;rounded=0;orthogonalLoop=1;jettySize=auto;html=1;exitX=1;exitY=0.5;exitDx=0;exitDy=0;entryX=0;entryY=0.5;entryDx=0;entryDy=0;strokeWidth=2;strokeColor=#000000;" parent="1" source="NMqnJI7aEqDqJTZ6Ip5w-48" target="NMqnJI7aEqDqJTZ6Ip5w-53" edge="1">
          <mxGeometry relative="1" as="geometry" />
        </mxCell>
        <mxCell id="NMqnJI7aEqDqJTZ6Ip5w-48" value="TRUE" style="rounded=0;whiteSpace=wrap;html=1;fillColor=none;strokeColor=#000000;strokeWidth=2;" parent="1" vertex="1">
          <mxGeometry x="932" y="800" width="60" height="30" as="geometry" />
        </mxCell>
        <mxCell id="NMqnJI7aEqDqJTZ6Ip5w-51" style="edgeStyle=orthogonalEdgeStyle;rounded=0;orthogonalLoop=1;jettySize=auto;html=1;exitX=1;exitY=0.5;exitDx=0;exitDy=0;entryX=0.5;entryY=0;entryDx=0;entryDy=0;dashed=1;dashPattern=1 1;strokeWidth=2;strokeColor=#000000;" parent="1" source="NMqnJI7aEqDqJTZ6Ip5w-49" target="NMqnJI7aEqDqJTZ6Ip5w-37" edge="1">
          <mxGeometry relative="1" as="geometry">
            <Array as="points">
              <mxPoint x="1012" y="725" />
              <mxPoint x="1012" y="680" />
              <mxPoint x="447" y="680" />
            </Array>
          </mxGeometry>
        </mxCell>
        <mxCell id="NMqnJI7aEqDqJTZ6Ip5w-49" value="FALSE" style="rounded=0;whiteSpace=wrap;html=1;fillColor=none;strokeColor=#000000;strokeWidth=2;" parent="1" vertex="1">
          <mxGeometry x="932" y="710" width="60" height="30" as="geometry" />
        </mxCell>
        <mxCell id="NMqnJI7aEqDqJTZ6Ip5w-56" style="edgeStyle=orthogonalEdgeStyle;rounded=0;orthogonalLoop=1;jettySize=auto;html=1;exitX=1;exitY=0.5;exitDx=0;exitDy=0;entryX=0;entryY=0.5;entryDx=0;entryDy=0;strokeWidth=2;strokeColor=#000000;" parent="1" source="NMqnJI7aEqDqJTZ6Ip5w-53" target="NMqnJI7aEqDqJTZ6Ip5w-55" edge="1">
          <mxGeometry relative="1" as="geometry" />
        </mxCell>
        <mxCell id="NMqnJI7aEqDqJTZ6Ip5w-53" value="&lt;b&gt;BOT&lt;/b&gt;:&lt;div&gt;Puedes proporcionarme una dirección de &lt;b&gt;EMAIL&lt;/b&gt; para enviarte el comprobante del &lt;b&gt;RECLAMO?&lt;/b&gt;&lt;/div&gt;" style="whiteSpace=wrap;html=1;fillColor=none;strokeColor=#000000;rounded=1;strokeWidth=2;" parent="1" vertex="1">
          <mxGeometry x="1072" y="725" width="190" height="90" as="geometry" />
        </mxCell>
        <mxCell id="NMqnJI7aEqDqJTZ6Ip5w-60" style="edgeStyle=orthogonalEdgeStyle;rounded=0;orthogonalLoop=1;jettySize=auto;html=1;exitX=0.5;exitY=1;exitDx=0;exitDy=0;strokeWidth=2;strokeColor=#000000;" parent="1" source="NMqnJI7aEqDqJTZ6Ip5w-55" target="NMqnJI7aEqDqJTZ6Ip5w-57" edge="1">
          <mxGeometry relative="1" as="geometry" />
        </mxCell>
        <mxCell id="NMqnJI7aEqDqJTZ6Ip5w-55" value="&lt;b&gt;USER&lt;/b&gt;:&lt;br&gt;Entrega dirección &lt;b&gt;EMAIL&lt;/b&gt;" style="rounded=1;whiteSpace=wrap;html=1;fillColor=none;strokeColor=#000000;strokeWidth=2;" parent="1" vertex="1">
          <mxGeometry x="1312" y="740" width="120" height="60" as="geometry" />
        </mxCell>
        <mxCell id="NMqnJI7aEqDqJTZ6Ip5w-63" style="edgeStyle=orthogonalEdgeStyle;rounded=0;orthogonalLoop=1;jettySize=auto;html=1;exitX=0.5;exitY=1;exitDx=0;exitDy=0;entryX=0.5;entryY=0;entryDx=0;entryDy=0;strokeWidth=2;strokeColor=#000000;" parent="1" source="NMqnJI7aEqDqJTZ6Ip5w-57" target="NMqnJI7aEqDqJTZ6Ip5w-61" edge="1">
          <mxGeometry relative="1" as="geometry" />
        </mxCell>
        <mxCell id="NMqnJI7aEqDqJTZ6Ip5w-57" value="&lt;b&gt;BOT&lt;/b&gt;&amp;nbsp;evalúa&amp;nbsp;&lt;div&gt;consistencia de&lt;/div&gt;&lt;div&gt;&lt;span style=&quot;background-color: transparent; color: light-dark(rgb(51, 51, 51), rgb(193, 193, 193));&quot;&gt;&lt;b style=&quot;&quot;&gt;EMAIL&lt;/b&gt; del&amp;nbsp;&lt;/span&gt;&lt;b style=&quot;background-color: transparent; color: light-dark(rgb(51, 51, 51), rgb(193, 193, 193));&quot;&gt;USER&lt;/b&gt;&lt;/div&gt;" style="shape=step;perimeter=stepPerimeter;whiteSpace=wrap;html=1;fixedSize=1;fillColor=none;strokeColor=#000000;strokeWidth=2;fontColor=#333333;" parent="1" vertex="1">
          <mxGeometry x="1307" y="860" width="130" height="70" as="geometry" />
        </mxCell>
        <mxCell id="NMqnJI7aEqDqJTZ6Ip5w-66" style="edgeStyle=orthogonalEdgeStyle;rounded=0;orthogonalLoop=1;jettySize=auto;html=1;exitX=0.5;exitY=1;exitDx=0;exitDy=0;entryX=0.5;entryY=0;entryDx=0;entryDy=0;strokeWidth=2;strokeColor=#000000;" parent="1" source="NMqnJI7aEqDqJTZ6Ip5w-61" target="NMqnJI7aEqDqJTZ6Ip5w-65" edge="1">
          <mxGeometry relative="1" as="geometry" />
        </mxCell>
        <mxCell id="NMqnJI7aEqDqJTZ6Ip5w-67" style="edgeStyle=orthogonalEdgeStyle;rounded=0;orthogonalLoop=1;jettySize=auto;html=1;exitX=0.5;exitY=1;exitDx=0;exitDy=0;entryX=0.5;entryY=0;entryDx=0;entryDy=0;strokeWidth=2;strokeColor=#000000;" parent="1" source="NMqnJI7aEqDqJTZ6Ip5w-61" target="NMqnJI7aEqDqJTZ6Ip5w-64" edge="1">
          <mxGeometry relative="1" as="geometry" />
        </mxCell>
        <mxCell id="NMqnJI7aEqDqJTZ6Ip5w-61" value="IF" style="rhombus;whiteSpace=wrap;html=1;fillColor=none;strokeColor=#000000;strokeWidth=2;" parent="1" vertex="1">
          <mxGeometry x="1342" y="970" width="60" height="60" as="geometry" />
        </mxCell>
        <mxCell id="NMqnJI7aEqDqJTZ6Ip5w-68" style="edgeStyle=orthogonalEdgeStyle;rounded=0;orthogonalLoop=1;jettySize=auto;html=1;exitX=0.5;exitY=1;exitDx=0;exitDy=0;entryX=0.5;entryY=0;entryDx=0;entryDy=0;dashed=1;dashPattern=1 2;strokeWidth=2;strokeColor=#000000;" parent="1" source="NMqnJI7aEqDqJTZ6Ip5w-64" target="NMqnJI7aEqDqJTZ6Ip5w-53" edge="1">
          <mxGeometry relative="1" as="geometry">
            <Array as="points">
              <mxPoint x="1452" y="1120" />
              <mxPoint x="1532" y="1120" />
              <mxPoint x="1532" y="670" />
              <mxPoint x="1167" y="670" />
            </Array>
          </mxGeometry>
        </mxCell>
        <mxCell id="NMqnJI7aEqDqJTZ6Ip5w-64" value="FALSE" style="rounded=0;whiteSpace=wrap;html=1;fillColor=none;strokeColor=#000000;strokeWidth=2;" parent="1" vertex="1">
          <mxGeometry x="1422" y="1070" width="60" height="30" as="geometry" />
        </mxCell>
        <mxCell id="NMqnJI7aEqDqJTZ6Ip5w-69" style="edgeStyle=orthogonalEdgeStyle;rounded=0;orthogonalLoop=1;jettySize=auto;html=1;exitX=0.5;exitY=1;exitDx=0;exitDy=0;strokeWidth=2;strokeColor=#000000;" parent="1" source="NMqnJI7aEqDqJTZ6Ip5w-65" edge="1">
          <mxGeometry relative="1" as="geometry">
            <mxPoint x="1302" y="1180" as="targetPoint" />
          </mxGeometry>
        </mxCell>
        <mxCell id="NMqnJI7aEqDqJTZ6Ip5w-65" value="TRUE" style="rounded=0;whiteSpace=wrap;html=1;fillColor=none;strokeColor=#000000;strokeWidth=2;" parent="1" vertex="1">
          <mxGeometry x="1272" y="1070" width="60" height="30" as="geometry" />
        </mxCell>
        <mxCell id="NMqnJI7aEqDqJTZ6Ip5w-72" style="edgeStyle=orthogonalEdgeStyle;rounded=0;orthogonalLoop=1;jettySize=auto;html=1;exitX=0;exitY=0.5;exitDx=0;exitDy=0;strokeWidth=2;strokeColor=#000000;" parent="1" source="NMqnJI7aEqDqJTZ6Ip5w-70" target="NMqnJI7aEqDqJTZ6Ip5w-71" edge="1">
          <mxGeometry relative="1" as="geometry" />
        </mxCell>
        <mxCell id="NMqnJI7aEqDqJTZ6Ip5w-70" value="&lt;b&gt;BOT&lt;/b&gt;:&lt;div&gt;&lt;b&gt;DESPEDIDA&lt;/b&gt;&lt;/div&gt;" style="whiteSpace=wrap;html=1;rounded=1;strokeWidth=2;" parent="1" vertex="1">
          <mxGeometry x="1237" y="1150" width="130" height="50" as="geometry" />
        </mxCell>
        <mxCell id="NMqnJI7aEqDqJTZ6Ip5w-71" value="&lt;b&gt;BOT &lt;/b&gt;envía &lt;b&gt;MAIL&lt;/b&gt; con comprobante de &lt;b&gt;RECLAMO&lt;/b&gt; a&amp;nbsp;&lt;b&gt;USER&lt;/b&gt;" style="shape=document;whiteSpace=wrap;html=1;boundedLbl=1;strokeWidth=2;" parent="1" vertex="1">
          <mxGeometry x="1002" y="1170" width="125" height="80" as="geometry" />
        </mxCell>
        <mxCell id="NMqnJI7aEqDqJTZ6Ip5w-73" value="&lt;font style=&quot;font-size: 27px; color: rgb(0, 0, 0);&quot;&gt;FLUJO COMPLAINTS-MCP&lt;/font&gt;" style="rounded=0;whiteSpace=wrap;html=1;fillColor=none;fontColor=#ffffff;strokeColor=#000000;fillStyle=solid;" parent="1" vertex="1">
          <mxGeometry x="582" y="140" width="450" height="40" as="geometry" />
        </mxCell>
        <mxCell id="1F5hImNv9LLrnXOSAvWZ-1" value="&lt;font style=&quot;font-size: 14px;&quot;&gt;1&lt;/font&gt;" style="ellipse;whiteSpace=wrap;html=1;aspect=fixed;" parent="1" vertex="1">
          <mxGeometry x="285.5" y="299.5" width="23" height="23" as="geometry" />
        </mxCell>
        <mxCell id="1F5hImNv9LLrnXOSAvWZ-3" value="&lt;font style=&quot;color: rgb(255, 255, 255); background-color: rgb(0, 0, 0); font-size: 13px;&quot; face=&quot;Courier New&quot;&gt;datos_reclamos&lt;/font&gt;" style="text;html=1;align=left;verticalAlign=middle;whiteSpace=wrap;rounded=0;" parent="1" vertex="1">
          <mxGeometry x="308.5" y="292.5" width="60" height="30" as="geometry" />
        </mxCell>
        <mxCell id="1F5hImNv9LLrnXOSAvWZ-5" value="&lt;font style=&quot;font-size: 14px;&quot;&gt;2&lt;/font&gt;" style="ellipse;whiteSpace=wrap;html=1;aspect=fixed;" parent="1" vertex="1">
          <mxGeometry x="1522" y="486" width="23" height="23" as="geometry" />
        </mxCell>
        <mxCell id="1F5hImNv9LLrnXOSAvWZ-7" value="&lt;font style=&quot;font-size: 14px;&quot;&gt;3&lt;/font&gt;" style="ellipse;whiteSpace=wrap;html=1;aspect=fixed;" parent="1" vertex="1">
          <mxGeometry x="436" y="830.5" width="23" height="23" as="geometry" />
        </mxCell>
        <mxCell id="1F5hImNv9LLrnXOSAvWZ-8" value="&lt;font style=&quot;color: rgb(255, 255, 255); background-color: rgb(0, 0, 0); font-size: 13px;&quot; face=&quot;Courier New&quot;&gt;depto_reclamos&lt;/font&gt;" style="text;html=1;align=left;verticalAlign=middle;whiteSpace=wrap;rounded=0;" parent="1" vertex="1">
          <mxGeometry x="459" y="827" width="60" height="30" as="geometry" />
        </mxCell>
        <mxCell id="1F5hImNv9LLrnXOSAvWZ-9" value="&lt;font style=&quot;font-size: 14px;&quot;&gt;4&lt;/font&gt;" style="ellipse;whiteSpace=wrap;html=1;aspect=fixed;" parent="1" vertex="1">
          <mxGeometry x="1122.75" y="827" width="23" height="23" as="geometry" />
        </mxCell>
        <mxCell id="1F5hImNv9LLrnXOSAvWZ-10" value="&lt;font style=&quot;color: rgb(255, 255, 255); background-color: rgb(0, 0, 0); font-size: 13px;&quot; face=&quot;Courier New&quot;&gt;mail_reclamos&lt;/font&gt;" style="text;html=1;align=left;verticalAlign=middle;whiteSpace=wrap;rounded=0;" parent="1" vertex="1">
          <mxGeometry x="1145.75" y="823.5" width="60" height="30" as="geometry" />
        </mxCell>
        <mxCell id="Y92-rjjAcBgaWCxeQdZq-16" style="edgeStyle=orthogonalEdgeStyle;rounded=0;orthogonalLoop=1;jettySize=auto;html=1;exitX=0.5;exitY=1;exitDx=0;exitDy=0;strokeColor=#000000;dashed=1;strokeWidth=1;" edge="1" parent="1" source="Y92-rjjAcBgaWCxeQdZq-17" target="Y92-rjjAcBgaWCxeQdZq-18">
          <mxGeometry relative="1" as="geometry" />
        </mxCell>
        <mxCell id="Y92-rjjAcBgaWCxeQdZq-34" style="edgeStyle=orthogonalEdgeStyle;rounded=0;orthogonalLoop=1;jettySize=auto;html=1;exitX=1;exitY=0.5;exitDx=0;exitDy=0;entryX=0;entryY=0.5;entryDx=0;entryDy=0;strokeWidth=2;" edge="1" parent="1" source="Y92-rjjAcBgaWCxeQdZq-17" target="Y92-rjjAcBgaWCxeQdZq-31">
          <mxGeometry relative="1" as="geometry" />
        </mxCell>
        <mxCell id="Y92-rjjAcBgaWCxeQdZq-17" value="&lt;font face=&quot;Verdana&quot;&gt;&lt;b style=&quot;&quot;&gt;USER&lt;/b&gt;:&lt;br&gt;Entrega &lt;i style=&quot;&quot;&gt;RUT&lt;/i&gt;&lt;/font&gt;" style="rounded=1;whiteSpace=wrap;html=1;fillColor=none;strokeColor=#000000;strokeWidth=2;" vertex="1" parent="1">
          <mxGeometry x="939.5" y="415" width="120" height="42" as="geometry" />
        </mxCell>
        <mxCell id="Y92-rjjAcBgaWCxeQdZq-18" value="&lt;font face=&quot;Verdana&quot;&gt;&lt;b&gt;BOT&lt;/b&gt;&amp;nbsp;evalúa&amp;nbsp;&lt;/font&gt;&lt;div&gt;&lt;font face=&quot;Verdana&quot;&gt;consistencia de&lt;/font&gt;&lt;/div&gt;&lt;div&gt;&lt;span style=&quot;font-family: Verdana; background-color: transparent; color: light-dark(rgb(51, 51, 51), rgb(193, 193, 193));&quot;&gt;&lt;i&gt;RUT&amp;nbsp;&lt;/i&gt;del&amp;nbsp;&lt;/span&gt;&lt;b style=&quot;font-family: Verdana; background-color: transparent; color: light-dark(rgb(51, 51, 51), rgb(193, 193, 193));&quot;&gt;USER&lt;/b&gt;&lt;/div&gt;" style="shape=step;perimeter=stepPerimeter;whiteSpace=wrap;html=1;fixedSize=1;fillColor=none;strokeColor=#000000;strokeWidth=2;fontColor=#333333;" vertex="1" parent="1">
          <mxGeometry x="931" y="486" width="137" height="76" as="geometry" />
        </mxCell>
        <mxCell id="Y92-rjjAcBgaWCxeQdZq-23" style="edgeStyle=orthogonalEdgeStyle;rounded=0;orthogonalLoop=1;jettySize=auto;html=1;exitX=1;exitY=0.5;exitDx=0;exitDy=0;strokeWidth=2;" edge="1" parent="1" source="Y92-rjjAcBgaWCxeQdZq-20" target="Y92-rjjAcBgaWCxeQdZq-17">
          <mxGeometry relative="1" as="geometry" />
        </mxCell>
        <mxCell id="Y92-rjjAcBgaWCxeQdZq-20" value="&lt;font face=&quot;Verdana&quot;&gt;&lt;b&gt;BOT&lt;/b&gt;:&lt;/font&gt;&lt;div&gt;&lt;font face=&quot;Verdana&quot;&gt;Me puedes proporcionar tu &lt;b&gt;RUT&lt;/b&gt;&lt;/font&gt;&lt;/div&gt;" style="whiteSpace=wrap;html=1;fillColor=none;strokeColor=#000000;rounded=1;strokeWidth=2;" vertex="1" parent="1">
          <mxGeometry x="806" y="396" width="103" height="80" as="geometry" />
        </mxCell>
        <mxCell id="Y92-rjjAcBgaWCxeQdZq-29" style="edgeStyle=orthogonalEdgeStyle;rounded=0;orthogonalLoop=1;jettySize=auto;html=1;exitX=1;exitY=0.5;exitDx=0;exitDy=0;entryX=0;entryY=0.5;entryDx=0;entryDy=0;strokeWidth=2;strokeColor=#000000;" edge="1" parent="1" source="Y92-rjjAcBgaWCxeQdZq-31" target="Y92-rjjAcBgaWCxeQdZq-33">
          <mxGeometry relative="1" as="geometry" />
        </mxCell>
        <mxCell id="Y92-rjjAcBgaWCxeQdZq-30" style="edgeStyle=orthogonalEdgeStyle;rounded=0;orthogonalLoop=1;jettySize=auto;html=1;exitX=1;exitY=0.5;exitDx=0;exitDy=0;entryX=0;entryY=0.5;entryDx=0;entryDy=0;strokeWidth=2;strokeColor=#000000;" edge="1" parent="1" source="Y92-rjjAcBgaWCxeQdZq-31" target="Y92-rjjAcBgaWCxeQdZq-32">
          <mxGeometry relative="1" as="geometry" />
        </mxCell>
        <mxCell id="Y92-rjjAcBgaWCxeQdZq-31" value="&lt;font face=&quot;Verdana&quot;&gt;IF&lt;/font&gt;" style="rhombus;whiteSpace=wrap;html=1;fillColor=none;strokeColor=#000000;strokeWidth=2;" vertex="1" parent="1">
          <mxGeometry x="1116" y="406" width="60" height="60" as="geometry" />
        </mxCell>
        <mxCell id="Y92-rjjAcBgaWCxeQdZq-39" style="edgeStyle=orthogonalEdgeStyle;rounded=0;orthogonalLoop=1;jettySize=auto;html=1;exitX=1;exitY=0.5;exitDx=0;exitDy=0;entryX=0;entryY=0.5;entryDx=0;entryDy=0;strokeWidth=2;" edge="1" parent="1" source="Y92-rjjAcBgaWCxeQdZq-32" target="NMqnJI7aEqDqJTZ6Ip5w-15">
          <mxGeometry relative="1" as="geometry" />
        </mxCell>
        <mxCell id="Y92-rjjAcBgaWCxeQdZq-32" value="TRUE" style="rounded=0;whiteSpace=wrap;html=1;fillColor=none;strokeColor=#000000;strokeWidth=2;" vertex="1" parent="1">
          <mxGeometry x="1262" y="466" width="60" height="30" as="geometry" />
        </mxCell>
        <mxCell id="Y92-rjjAcBgaWCxeQdZq-33" value="FALSE" style="rounded=0;whiteSpace=wrap;html=1;fillColor=none;strokeColor=#000000;strokeWidth=2;" vertex="1" parent="1">
          <mxGeometry x="1262" y="376" width="60" height="30" as="geometry" />
        </mxCell>
        <mxCell id="Y92-rjjAcBgaWCxeQdZq-35" style="edgeStyle=orthogonalEdgeStyle;rounded=0;orthogonalLoop=1;jettySize=auto;html=1;exitX=1;exitY=0.5;exitDx=0;exitDy=0;entryX=0.463;entryY=-0.007;entryDx=0;entryDy=0;entryPerimeter=0;dashed=1;dashPattern=1 2;strokeWidth=2;" edge="1" parent="1" source="Y92-rjjAcBgaWCxeQdZq-33" target="Y92-rjjAcBgaWCxeQdZq-20">
          <mxGeometry relative="1" as="geometry">
            <Array as="points">
              <mxPoint x="1346" y="391" />
              <mxPoint x="1346" y="320" />
              <mxPoint x="854" y="320" />
            </Array>
          </mxGeometry>
        </mxCell>
      </root>
    </mxGraphModel>
  </diagram>
</mxfile>
